Joey Season 2 DVDRip XviD DiGrX


Codec ID, Format: XVID, MPEG-4
Aspect ratio, Dimension: 16:9, 624x352
Audio: MP3, 2 Channels

All Episodes in XviD DVDRip Aspect ratio 16:9 stretched from 4:3


-----------------------------------------------------------------------------------


Season 2 Episode 1 example:

Complete name                            : Joey 2x01 - Joey and the Big Break (1) DVDRip.avi
Format                                   : AVI
Format/Info                              : Audio Video Interleave
File size                                : 174 MiB
Duration                                 : 20mn 17s
Overall bit rate mode                    : Variable
Overall bit rate                         : 1 199 Kbps
Writing application                      : MEncoder r33883
Writing library                          : MPlayer

Video
ID                                       : 0
Format                                   : MPEG-4 Visual
Format profile                           : Simple@L3
Format settings, BVOP                    : No
Format settings, QPel                    : No
Format settings, GMC                     : No warppoints
Format settings, Matrix                  : Default (H.263)
Codec ID                                 : XVID
Codec ID/Hint                            : XviD
Duration                                 : 20mn 17s
Bit rate                                 : 996 Kbps
Width                                    : 624 pixels
Height                                   : 352 pixels
Display aspect ratio                     : 16:9
Frame rate                               : 25.000 fps
Color space                              : YUV
Chroma subsampling                       : 4:2:0
Bit depth                                : 8 bits
Scan type                                : Progressive
Compression mode                         : Lossy
Bits/(Pixel*Frame)                       : 0.181
Stream size                              : 145 MiB (83%)
Writing library                          : XviD 63

Audio
ID                                       : 1
Format                                   : MPEG Audio
Format version                           : Version 1
Format profile                           : Layer 3
Mode                                     : Joint stereo
Mode extension                           : MS Stereo
Codec ID                                 : 55
Codec ID/Hint                            : MP3
Duration                                 : 20mn 17s
Bit rate mode                            : Variable
Bit rate                                 : 192 Kbps
Channel(s)                               : 2 channels
Sampling rate                            : 48.0 KHz
Compression mode                         : Lossy
Stream size                              : 27.5 MiB (16%)
Alignment                                : Aligned on interleaves
Interleave, duration                     : 24 ms (0.60 video frame)
Interleave, preload duration             : 85 ms
Writing library                          : LAME3.98.4


-----------------------------------------------------------------------------------


Please keep seeding!